<?xml version="1.0" encoding="utf-8"?>
<!-- Generator: Adobe Illustrator 22.0.1, SVG Export Plug-In . SVG Version: 6.00 Build 0)  -->
<svg version="1.1" xmlns="http://www.w3.org/2000/svg" xmlns:xlink="http://www.w3.org/1999/xlink" x="0px" y="0px"
	 viewBox="0 0 1121 852" style="enable-background:new 0 0 1121 852;" xml:space="preserve">
<style type="text/css">
	.st0{fill:url(#SVGID_1_);}
	.st1{fill:#F9A818;}
	.st2{fill:#F5E6B6;}
	.st3{fill:#F0B16C;}
	.st4{fill:#103754;}
	.st5{fill:#C62229;}
	.st6{fill:#F85A68;}
	.st7{fill:#50667E;}
	.st8{fill:#20364D;}
	.st9{fill:#E1EFFA;}
	.st10{fill:#CEE2F2;}
	.st11{fill:#2A445E;}
	.st12{fill-rule:evenodd;clip-rule:evenodd;fill:#FFFFFF;}
	.st13{fill:#A6DAE9;}
	.st14{fill:#F99B1C;}
	.st15{fill:#15B0BF;}
	.st16{fill:#4C8EB4;}
	.st17{fill:#CCCCCC;}
	.st18{opacity:0.1;fill-rule:evenodd;clip-rule:evenodd;}
	.st19{fill-rule:evenodd;clip-rule:evenodd;fill:#4C8EB4;}
	.st20{fill-rule:evenodd;clip-rule:evenodd;fill:#609DC1;}
	.st21{fill-rule:evenodd;clip-rule:evenodd;fill:#73ACCD;}
	.st22{fill-rule:evenodd;clip-rule:evenodd;fill:#87BBDA;}
	.st23{fill-rule:evenodd;clip-rule:evenodd;fill:#9ACAE6;}
	.st24{fill-rule:evenodd;clip-rule:evenodd;fill:#CCCCCC;}
	.st25{fill:#FEC00F;}
	.st26{opacity:0.1;fill:#FFFFFF;}
	.st27{fill:none;}
	.st28{opacity:0.6;fill:#FFFFFF;}
	.st29{fill:#0E303F;}
	.st30{fill:#2C5871;}
	.st31{fill:#164866;}
	.st32{fill:#617B93;}
	.st33{fill:#21D8DE;}
	.st34{fill:#E64717;}
	.st35{fill:#F2F9FF;}
	.st36{fill:#365772;}
	.st37{fill:#2F4F6B;}
</style>
<g id="BG">
	<linearGradient id="SVGID_1_" gradientUnits="userSpaceOnUse" x1="144" y1="428.5" x2="925" y2="428.5">
		<stop  offset="0" style="stop-color:#00A9C4"/>
		<stop  offset="2.988636e-02" style="stop-color:#0FABC3"/>
		<stop  offset="0.1151" style="stop-color:#33AFC1"/>
		<stop  offset="0.2081" style="stop-color:#52B2BF"/>
		<stop  offset="0.3089" style="stop-color:#6BB5BD"/>
		<stop  offset="0.4207" style="stop-color:#7FB7BC"/>
		<stop  offset="0.5492" style="stop-color:#8DB9BB"/>
		<stop  offset="0.7095" style="stop-color:#95BABA"/>
		<stop  offset="1" style="stop-color:#97BABA"/>
	</linearGradient>
	<path class="st0" d="M908.7,390.9c8.6-24.7,13.3-51.3,13.3-78.9v0c0-132.5-107.5-240-240-240h0c-62.6,0-119.6,24-162.3,63.2
		C485.7,110,443.6,95,398,95h0c-112.7,0-204,91.3-204,204v0c0,5.8,0.3,11.5,0.7,17.1C162.7,364,144,421.6,144,483.5v0
		C144,650,279,785,445.5,785h0c74.2,0,142.1-26.8,194.6-71.2c14.6,2.8,29.6,4.2,44.9,4.2h0c132.5,0,240-107.5,240-240v0
		C925,447.3,919.2,417.9,908.7,390.9z"/>
</g>
<g id="Layer_1">
	<g>
		<g id="pencil">
			<path class="st1" d="M836.7,381.1l-147.5,0c0.3,1.2,1.7,2.1,3.5,2.3h144L836.7,381.1z"/>
			<path class="st2" d="M836.7,388.7v-5.4h-144l0,0c0,0,0,0,0,0c0,0,0,0,0,0c-2,0.2-3.6,1.3-3.6,2.7c0,1.4,1.6,2.5,3.6,2.7
				c0,0,0,0,0,0c0,0,0,0,0,0l0,0H836.7z"/>
			<path class="st1" d="M692.7,388.7c-1.8,0.1-3.2,1.1-3.5,2.3h147.5v-2.3H692.7z"/>
			<path class="st3" d="M689.2,391c0.3-1.2,1.7-2.1,3.5-2.3l0,0c0,0,0,0,0,0c0,0,0,0,0,0c-2-0.2-3.6-1.3-3.6-2.7
				c0-1.4,1.6-2.5,3.6-2.7c0,0,0,0,0,0c0,0,0,0,0,0l0,0c-1.8-0.1-3.2-1.1-3.5-2.3l-9.4,4.9L689.2,391z"/>
			<path class="st4" d="M684.4,383.6l-4.6,2.4l4.6,2.4c0.3-0.8,0.4-1.6,0.4-2.4C684.8,385.2,684.7,384.4,684.4,383.6z"/>
			<g>
				<rect x="836.7" y="381.1" class="st5" width="4.5" height="2.3"/>
				<rect x="836.7" y="383.4" class="st6" width="4.5" height="5.4"/>
				<rect x="836.7" y="388.7" class="st5" width="4.5" height="2.3"/>
			</g>
		</g>
		<g id="glasses">
			<g>
				<g>
					<path class="st7" d="M844.7,352.6c-0.5,0-1-0.1-1.4-0.4l-24.7-13.3c-4.8-2.6-9.8-4.5-15.1-5.8c-5.2-1.3-10.6-2-16-2H678.7v-5.9
						h108.8c5.9,0,11.8,0.7,17.5,2.2c5.7,1.4,11.2,3.6,16.4,6.4l24.8,13.3c1.4,0.8,2,2.6,1.2,4C846.8,352,845.8,352.6,844.7,352.6z"
						/>
					<path class="st7" d="M675.6,352.6c0.5,0,1-0.1,1.4-0.4l24.7-13.3c4.8-2.6,9.8-4.5,15.1-5.8c5.2-1.3,10.6-2,16-2h108.8v-5.9
						H732.8c-5.9,0-11.8,0.7-17.5,2.2c-5.7,1.4-11.2,3.6-16.4,6.4l-24.7,13.3c-1.4,0.8-2,2.6-1.2,4
						C673.5,352,674.5,352.6,675.6,352.6z"/>
				</g>
			</g>
			<path class="st8" d="M752.4,329.9L752.4,329.9c0-4.3,3.5-7.7,7.7-7.7c4.3,0,7.8,3.5,7.8,7.7l0,0h5.9l0,0
				c0-7.5-6.1-13.6-13.6-13.6c-7.5,0-13.6,6.1-13.6,13.6l0,0H752.4z"/>
			<g>
				<path class="st9" d="M746.5,339.1c0,6.2-5.1,11.3-11.3,11.3h-39.3c-6.2,0-11.3-5.1-11.3-11.3v-21.2c0-6.2,5.1-11.3,11.3-11.3
					h39.3c6.2,0,11.3,5.1,11.3,11.3V339.1z"/>
				<path class="st10" d="M735.2,306.6h-21.6v43.8h21.6c6.2,0,11.3-5.1,11.3-11.3v-21.2C746.5,311.7,741.4,306.6,735.2,306.6z"/>
			</g>
			<g>
				<path class="st9" d="M835.5,339.1c0,6.2-5.1,11.3-11.3,11.3h-39.3c-6.2,0-11.3-5.1-11.3-11.3v-21.2c0-6.2,5.1-11.3,11.3-11.3
					h39.3c6.2,0,11.3,5.1,11.3,11.3V339.1z"/>
				<path class="st10" d="M824.2,306.6h-21.6v43.8h21.6c6.2,0,11.3-5.1,11.3-11.3v-21.2C835.5,311.7,830.4,306.6,824.2,306.6z"/>
			</g>
			<path class="st11" d="M738.1,300.9h-45.2c-7.8,0-14.3,6.4-14.3,14.3v26.8c0,7.8,6.4,14.3,14.3,14.3h45.2
				c7.8,0,14.3-6.4,14.3-14.3v-26.8C752.4,307.3,746,300.9,738.1,300.9z M746.5,339.1c0,6.2-5.1,11.3-11.3,11.3h-39.3
				c-6.2,0-11.3-5.1-11.3-11.3v-21.2c0-6.2,5.1-11.3,11.3-11.3h39.3c6.2,0,11.3,5.1,11.3,11.3V339.1z"/>
			<path class="st11" d="M827.2,300.9H782c-7.8,0-14.3,6.4-14.3,14.3v26.8c0,7.8,6.4,14.3,14.3,14.3h45.2c7.8,0,14.3-6.4,14.3-14.3
				v-26.8C841.4,307.3,835,300.9,827.2,300.9z M835.5,339.1c0,6.2-5.1,11.3-11.3,11.3h-39.3c-6.2,0-11.3-5.1-11.3-11.3v-21.2
				c0-6.2,5.1-11.3,11.3-11.3h39.3c6.2,0,11.3,5.1,11.3,11.3V339.1z"/>
		</g>
		<g id="paper">
			<g>
				<path class="st12" d="M239,303.7l245.3,0.1l-0.2,347l-245.3-0.1L239,303.7z"/>
				<g>
					<path class="st13" d="M389.4,486.2c-1.3,4.1-3.4,7.7-6.3,10.8l21.5,29.9c10.8-9.3,18.6-22.1,21.6-36.7L389.4,486.2z"/>
					<path class="st14" d="M367.5,448.2c12.5,2.6,22,13.1,23.2,26.1l36.7,4c0-0.4,0.1-0.8,0.1-1.2c0-34.4-26.3-62.6-59.9-65.6V448.2
						z"/>
					<path class="st15" d="M339.8,457.3c4.1-4.5,9.5-7.8,15.7-9.1v-36.8c-19.6,1.8-36.6,12.1-47.5,27.2L339.8,457.3z"/>
					<path class="st16" d="M373.4,504c-3.6,1.6-7.7,2.6-11.9,2.6c-16.3,0-29.5-13.2-29.5-29.5c0-3.3,0.7-6.5,1.7-9.4L302,448.9
						c-4,8.5-6.4,18.1-6.4,28.2c0,36.4,29.5,65.9,66,65.9c12.2,0,23.5-3.3,33.3-9.1L373.4,504z"/>
				</g>
				<g>
					<rect x="264.3" y="327.1" class="st14" width="30.7" height="8.9"/>
					<rect x="264.3" y="347.4" class="st15" width="30.7" height="8.9"/>
					<rect x="264.3" y="367.8" class="st13" width="30.7" height="8.9"/>
					<rect x="264.3" y="388.1" class="st16" width="30.7" height="8.9"/>
					<rect x="315.8" y="327.5" class="st17" width="142.9" height="10.1"/>
					<rect x="315.8" y="357.5" class="st17" width="142.9" height="10"/>
					<rect x="315.8" y="387.6" class="st17" width="142.9" height="10"/>
					<rect x="315.8" y="372.6" class="st17" width="142.9" height="10"/>
					<rect x="315.8" y="342.5" class="st17" width="142.9" height="10"/>
				</g>
				<g>
					<rect x="264.3" y="552.2" class="st17" width="6.5" height="69"/>
					<rect x="264.3" y="621.2" class="st17" width="194.4" height="6.5"/>
					<g>
						<rect x="287.9" y="590.5" class="st15" width="17.4" height="30.7"/>
						<rect x="287.9" y="575.2" class="st13" width="17.4" height="15.3"/>
					</g>
					<g>
						<rect x="320.3" y="577.2" class="st15" width="17.4" height="44"/>
						<rect x="320.3" y="568.4" class="st13" width="17.4" height="8.8"/>
					</g>
					<g>
						<rect x="352.8" y="598.9" class="st15" width="17.4" height="22.3"/>
						<rect x="352.8" y="582.8" class="st13" width="17.4" height="16"/>
					</g>
					<g>
						<rect x="385.3" y="608.4" class="st15" width="17.4" height="12.8"/>
						<rect x="385.3" y="595.6" class="st13" width="17.4" height="12.8"/>
					</g>
				</g>
			</g>
			<rect x="413.5" y="303.8" class="st18" width="70.7" height="302.4"/>
			<g>
				<path class="st12" d="M425.5,250.8l243,0.1l-0.2,343.7l-243-0.1L425.5,250.8z"/>
				<g>
					<polygon class="st19" points="456,428.4 477,428.5 476.9,447.6 455.9,447.5 					"/>
					<rect x="480.2" y="420.2" class="st20" width="21" height="27.3"/>
					<rect x="504.5" y="401.1" class="st21" width="21" height="46.5"/>
					<rect x="528.8" y="407.6" class="st22" width="21" height="40"/>
					<rect x="553" y="427.6" class="st23" width="21" height="20"/>
					<rect x="576.7" y="420" class="st21" width="21" height="27.6"/>
					<rect x="600.9" y="407.5" class="st22" width="21" height="40"/>
					<rect x="625.2" y="381.1" class="st23" width="21" height="66.5"/>
				</g>
				<rect x="447.6" y="475.9" class="st24" width="91.1" height="6.1"/>
				<rect x="447.6" y="486.4" class="st24" width="91.1" height="6.1"/>
				<rect x="447.6" y="497" class="st24" width="91.1" height="6.1"/>
				<rect x="447.6" y="507.6" class="st24" width="91.1" height="6.1"/>
				<rect x="447.6" y="518.2" class="st24" width="91.1" height="6.1"/>
				<rect x="447.6" y="528.8" class="st24" width="91.1" height="6.1"/>
				<rect x="447.6" y="539.4" class="st24" width="91.1" height="6.1"/>
				<rect x="447.6" y="550" class="st24" width="45.5" height="6.1"/>
				<rect x="555" y="475.9" class="st24" width="91.1" height="6"/>
				<rect x="555" y="486.5" class="st24" width="91.1" height="6.1"/>
				<rect x="555" y="497.1" class="st24" width="91.1" height="6.1"/>
				<rect x="555" y="507.7" class="st24" width="91.1" height="6"/>
				<rect x="555" y="518.3" class="st24" width="91.1" height="6"/>
				<rect x="555" y="528.9" class="st24" width="91.1" height="6.1"/>
				<rect x="555" y="539.4" class="st24" width="91.1" height="6.1"/>
				<rect x="555" y="550" class="st24" width="64.1" height="6"/>
				<g>
					<g>
						<polygon class="st25" points="460.7,365.4 455.2,357.8 524.5,306.7 569.5,337.5 641.4,288.3 646.7,296 569.5,348.9 
							524.7,318.3 						"/>
					</g>
					<g>
						<polygon class="st25" points="647.4,312.5 639.9,312.5 639.9,295.9 623.3,295.9 623.3,288.4 647.4,288.4 						"/>
					</g>
				</g>
				<path class="st15" d="M579.2,341.5c0-5.7-4.6-10.3-10.3-10.3c-5.7,0-10.3,4.6-10.3,10.3c0,5.7,4.6,10.3,10.3,10.3
					C574.6,351.8,579.2,347.2,579.2,341.5z"/>
				<path class="st15" d="M535.1,312.5c0-5.7-4.6-10.3-10.3-10.3c-5.7,0-10.3,4.6-10.3,10.3c0,5.7,4.6,10.3,10.3,10.3
					C530.4,322.8,535.1,318.2,535.1,312.5z"/>
			</g>
		</g>
		<g id="magnifying_glass">
			<path class="st26" d="M562.5,477c-9.8,9.8-15.1,22.7-15.2,36.5c-0.1,28.5,23.1,51.7,51.6,51.8c13.8,0,26.8-5.4,36.7-15.2l0,0
				c9.7-9.7,15.1-22.7,15.2-36.4c0-13.8-5.3-26.8-15.1-36.6c-9.8-9.8-22.7-15.2-36.5-15.2C585.3,461.8,572.3,467.2,562.5,477
				L562.5,477z"/>
			<g>
				<g>
					<path class="st27" d="M642.3,556.7"/>
				</g>
				<g>
					<path class="st13" d="M632.1,553.2c0.6-0.5,1.1-1,1.7-1.5C633.3,552.2,632.7,552.7,632.1,553.2z"/>
					<path class="st13" d="M633.9,551.6c0.6-0.5,1.1-1,1.6-1.6C635.1,550.6,634.5,551.1,633.9,551.6z"/>
					<path class="st28" d="M562.5,477c8.8-8.8,20.1-14,32.2-15c-2.4,0.2-4.7,0.6-7,1.1c-5.6,2.5-10.8,6.1-15.3,10.6
						c-9.8,9.8-15.1,22.7-15.2,36.4c-0.1,28.5,23.1,51.7,51.6,51.8c3.9,0,7.7-0.4,11.4-1.3c4.2-1.9,8.2-4.4,11.8-7.4
						c-9.3,7.8-20.9,12-33.1,11.9c-28.5,0-51.6-23.3-51.6-51.8C547.4,499.7,552.7,486.7,562.5,477z"/>
					<path class="st13" d="M594.8,462c0.4,0,0.8-0.1,1.2-0.1C595.6,461.9,595.2,461.9,594.8,462z"/>
					<path class="st13" d="M596.3,461.9c0.4,0,0.7,0,1.1,0C597,461.8,596.7,461.9,596.3,461.9z"/>
					<path class="st13" d="M597.7,461.8c0.5,0,0.9,0,1.4,0C598.7,461.8,598.2,461.8,597.7,461.8z"/>
				</g>
				<g>
					<path class="st29" d="M662.7,577.7c-3.5,3.5-9.1,3.5-12.6,0L639,566.2c-3.5-3.5-3.5-9.1,0-12.5c0,0,0,0,0,0
						c3.5-3.5,9.1-3.5,12.6,0l11.1,11.4C666.1,568.6,666.1,574.2,662.7,577.7C662.7,577.7,662.7,577.7,662.7,577.7z"/>
				</g>
			</g>
			<path class="st30" d="M529.6,513.4c-0.1,38.3,31,69.5,69.3,69.6c18.6,0,36.1-7.2,49.3-20.4c0,0,0,0,0,0
				c13.1-13.1,20.3-30.5,20.4-49c0-18.5-7.2-36-20.3-49.1c-13.1-13.2-30.5-20.4-49.1-20.5c-18.6,0-36.1,7.2-49.2,20.4
				C536.8,477.5,529.6,494.9,529.6,513.4z M547.3,513.4c0-13.8,5.4-26.7,15.2-36.5c9.8-9.8,22.8-15.2,36.6-15.2
				c13.8,0,26.8,5.4,36.5,15.2c9.8,9.8,15.1,22.8,15.1,36.6c0,13.7-5.4,26.7-15.2,36.4c-9.8,9.8-22.8,15.2-36.7,15.2
				C570.4,565.2,547.3,541.9,547.3,513.4z"/>
			
				<rect x="677.6" y="554.4" transform="matrix(0.7071 -0.7071 0.7071 0.7071 -227.8783 670.5598)" class="st4" width="35.7" height="111.9"/>
			
				<rect x="685" y="554.4" transform="matrix(0.7071 -0.7071 0.7071 0.7071 -227.878 670.5618)" class="st30" width="20.9" height="111.9"/>
			
				<rect x="711.1" y="635.3" transform="matrix(0.7071 -0.7071 0.7071 0.7071 -241.7528 704.0539)" class="st29" width="35.7" height="17.2"/>
			
				<rect x="718.5" y="635.3" transform="matrix(0.7071 -0.7071 0.7071 0.7071 -241.7543 704.0256)" class="st31" width="20.9" height="17.2"/>
			<g>
				<path class="st28" d="M622.5,476.8c-12.4-6.1-26.4-7-39.4-2.7c-4.5,1.5-8.7,3.6-12.5,6.2l3.8,10.1c4.4-3.4,9.4-6.1,15-8
					c13-4.4,27-3.4,39.4,2.7c5.7,2.8,10.8,6.7,15,11.2C638.8,488,631.5,481.2,622.5,476.8z"/>
			</g>
		</g>
		<g id="calculator">
			<path class="st32" d="M813.7,459H707.2v101.6c0,1.3,0.5,2.5,1.5,3.5c1,1,2.2,1.4,3.5,1.4h96.6c1.3,0,2.5-0.5,3.5-1.4
				c1-1,1.4-2.2,1.4-3.5V459z"/>
			<polygon class="st26" points="720.7,459 813.7,459 813.7,548.3 			"/>
			<g>
				<g>
					<g>
						<path class="st33" d="M755.4,481.8c0,0.5-0.4,0.9-0.9,0.9H719c-0.5,0-0.9-0.4-0.9-0.9v-11.4c0-0.5,0.4-0.9,0.9-0.9h35.5
							c0.5,0,0.9,0.4,0.9,0.9V481.8z"/>
					</g>
					<g>
						<path class="st34" d="M779.4,481.8c0,0.5-0.4,0.9-0.9,0.9h-11.4c-0.5,0-0.9-0.4-0.9-0.9v-11.4c0-0.5,0.4-0.9,0.9-0.9h11.4
							c0.5,0,0.9,0.4,0.9,0.9V481.8z"/>
					</g>
					<g>
						<g>
							<path class="st35" d="M803.5,481.8c0,0.5-0.4,0.9-0.9,0.9h-11.4c-0.5,0-0.9-0.4-0.9-0.9v-11.4c0-0.5,0.4-0.9,0.9-0.9h11.4
								c0.5,0,0.9,0.4,0.9,0.9V481.8z"/>
						</g>
					</g>
					<g>
						<g>
							<path class="st35" d="M731.3,505.9c0,0.5-0.4,0.9-0.9,0.9H719c-0.5,0-0.9-0.4-0.9-0.9v-11.4c0-0.5,0.4-0.9,0.9-0.9h11.4
								c0.5,0,0.9,0.4,0.9,0.9V505.9z"/>
						</g>
					</g>
					<g>
						<g>
							<path class="st35" d="M755.4,505.9c0,0.5-0.4,0.9-0.9,0.9h-11.4c-0.5,0-0.9-0.4-0.9-0.9v-11.4c0-0.5,0.4-0.9,0.9-0.9h11.4
								c0.5,0,0.9,0.4,0.9,0.9V505.9z"/>
						</g>
					</g>
					<g>
						<g>
							<path class="st35" d="M779.4,505.9c0,0.5-0.4,0.9-0.9,0.9h-11.4c-0.5,0-0.9-0.4-0.9-0.9v-11.4c0-0.5,0.4-0.9,0.9-0.9h11.4
								c0.5,0,0.9,0.4,0.9,0.9V505.9z"/>
						</g>
					</g>
					<g>
						<g>
							<path class="st35" d="M803.5,505.9c0,0.5-0.4,0.9-0.9,0.9h-11.4c-0.5,0-0.9-0.4-0.9-0.9v-11.4c0-0.5,0.4-0.9,0.9-0.9h11.4
								c0.5,0,0.9,0.4,0.9,0.9V505.9z"/>
						</g>
					</g>
					<g>
						<g>
							<path class="st35" d="M731.3,530c0,0.5-0.4,0.9-0.9,0.9H719c-0.5,0-0.9-0.4-0.9-0.9v-11.4c0-0.5,0.4-0.9,0.9-0.9h11.4
								c0.5,0,0.9,0.4,0.9,0.9V530z"/>
						</g>
					</g>
					<g>
						<g>
							<path class="st35" d="M755.4,530c0,0.5-0.4,0.9-0.9,0.9h-11.4c-0.5,0-0.9-0.4-0.9-0.9v-11.4c0-0.5,0.4-0.9,0.9-0.9h11.4
								c0.5,0,0.9,0.4,0.9,0.9V530z"/>
						</g>
					</g>
					<g>
						<path class="st8" d="M779.4,530c0,0.5-0.4,0.9-0.9,0.9h-11.4c-0.5,0-0.9-0.4-0.9-0.9v-11.4c0-0.5,0.4-0.9,0.9-0.9h11.4
							c0.5,0,0.9,0.4,0.9,0.9V530z"/>
					</g>
					<g>
						<g>
							<path class="st35" d="M731.3,554c0,0.5-0.4,0.9-0.9,0.9H719c-0.5,0-0.9-0.4-0.9-0.9v-11.4c0-0.5,0.4-0.9,0.9-0.9h11.4
								c0.5,0,0.9,0.4,0.9,0.9V554z"/>
						</g>
					</g>
					<g>
						<g>
							<path class="st35" d="M755.4,554c0,0.5-0.4,0.9-0.9,0.9h-11.4c-0.5,0-0.9-0.4-0.9-0.9v-11.4c0-0.5,0.4-0.9,0.9-0.9h11.4
								c0.5,0,0.9,0.4,0.9,0.9V554z"/>
						</g>
					</g>
					<g>
						<g>
							<path class="st8" d="M779.4,554c0,0.5-0.4,0.9-0.9,0.9h-11.4c-0.5,0-0.9-0.4-0.9-0.9v-11.4c0-0.5,0.4-0.9,0.9-0.9h11.4
								c0.5,0,0.9,0.4,0.9,0.9V554z"/>
						</g>
					</g>
					<g>
						<path class="st8" d="M803.5,554c0,0.5-0.4,0.9-0.9,0.9h-11.4c-0.5,0-0.9-0.4-0.9-0.9v-11.4c0-0.5,0.4-0.9,0.9-0.9h11.4
							c0.5,0,0.9,0.4,0.9,0.9V554z"/>
					</g>
					<g>
						<path class="st8" d="M803.5,530c0,0.5-0.4,0.9-0.9,0.9h-11.4c-0.5,0-0.9-0.4-0.9-0.9v-11.4c0-0.5,0.4-0.9,0.9-0.9h11.4
							c0.5,0,0.9,0.4,0.9,0.9V530z"/>
					</g>
				</g>
			</g>
			<path class="st36" d="M813.7,416.5c0-1.3-0.5-2.5-1.4-3.5c-1-1-2.2-1.4-3.5-1.4h-96.6c-1.3,0-2.5,0.5-3.5,1.4
				c-1,1-1.5,2.2-1.5,3.5V459h106.5V416.5z"/>
			<path class="st37" d="M719,450.5c-0.8,0-1.5-0.3-2.1-0.9c-0.5-0.5-0.9-1.3-0.9-2.1V423c0-0.8,0.3-1.5,0.9-2.1
				c0.5-0.5,1.3-0.9,2.1-0.9h83.6c0.8,0,1.5,0.3,2.1,0.9c0.5,0.5,0.8,1.3,0.8,2v24.5c0,0.8-0.3,1.5-0.9,2.1
				c-0.5,0.5-1.3,0.9-2.1,0.9H719z"/>
			<path class="st25" d="M719,422.2c-0.2,0-0.4,0.1-0.6,0.3c-0.2,0.2-0.3,0.4-0.3,0.6v24.5c0,0.2,0.1,0.4,0.3,0.6
				c0.2,0.2,0.4,0.3,0.6,0.3h83.6c0.2,0,0.4-0.1,0.6-0.3c0.2-0.2,0.2-0.4,0.2-0.6V423c0-0.2-0.1-0.4-0.2-0.6
				c-0.2-0.2-0.4-0.3-0.6-0.3H719z"/>
			<rect x="707.2" y="456.9" class="st37" width="106.5" height="2.1"/>
		</g>
	</g>
</g>
</svg>
