<?xml version="1.0" encoding="utf-8"?>
<!-- Generator: Adobe Illustrator 22.0.1, SVG Export Plug-In . SVG Version: 6.00 Build 0)  -->
<svg version="1.1" id="_x38_13c2686-e70f-4fb0-bf6b-a2eb7b1db384"
	 xmlns="http://www.w3.org/2000/svg" xmlns:xlink="http://www.w3.org/1999/xlink" x="0px" y="0px" viewBox="0 0 1121 851.8"
	 style="enable-background:new 0 0 1121 851.8;" xml:space="preserve">
<style type="text/css">
	.st0{fill:#CC9900;}
	.st1{fill:#3E4B5B;}
	.st2{fill:#CC9901;}
	.st3{fill:#3D4A5A;}
	.st4{fill:#CE9C08;}
	.st5{fill:#43505F;}
	.st6{fill:#505B6A;}
	.st7{fill:#3F4B5A;}
	.st8{fill:#FCFCFC;}
	.st9{fill:#3E4A5A;}
</style>
<title>interaction design</title>
<g>
	<path class="st0" d="M481.5,341.9c10.8-16.4,20.7-33.2,29.5-50.8c2.6-8.7,8.1-15.9,12.3-23.8c5.8-13.1,17.8-20.5,28-29.3
		c14.7-12.7,29.8-25,44.5-37.7c5.6-2.5,8-9.8,15-10.2c10.1-7.9,20.1-15.9,29.3-24.9c3.1-5.9,8.7-9.3,13.5-13.5
		c2.6-1.9,4.6-4.4,7.3-6.2c3.4-2.3,7-3,10.7-0.9c3.8,2.2,4.3,6.1,3.6,10c-1.4,7.2-4.8,13.6-7.9,20.2c-4.1,8.7-7.8,17.5-11.5,26.3
		c-5.3,10.5-10.1,21.1-14.3,32.1c-5.8,11.4-10.4,23.4-16.2,34.8c-3.8,7.6-3.9,14.7-0.2,22.4c6,12.6,10.8,25.7,16.3,38.5
		c4,11.3,9.1,22.2,13.9,33.2c1.4,5.9,5.2,9.4,10.6,11.9c20.4,9.5,39.6,21.2,59.9,30.7c4.4,3,10.2,3.9,13.4,8.7
		c12.3,7.9,25.7,13.6,38.5,20.6c2.3,1.3,4.7,2.3,7,3.7c2.5,1.4,3.8,3.7,3.3,6.6c-0.5,3.2-2.3,5.3-5.6,5.9
		c-6.6,1.1-13.2,2.3-19.8,3.3c-50,8-100.1,16-150.1,24.1c-10.9,1.7-21.5-1.1-32.2-2.1c-24.1-2.2-48.1-5-72.2-7.5
		c-0.5-0.1-1.1,0.3-1.6,0.5c-6.4,29.8,6.5,62.4,26.1,77.2c18.7,14.1,42.5,12.9,59.9-3.5c13.8-13,20.4-29.5,23-47.9
		c0.2-1.7,0.1-3.6,0.6-5.2c1.1-3.3,3.5-5.6,7.2-5.2c3.5,0.4,5.7,2.7,6,6.4c0.4,4.2-0.7,8.1-1.5,12.1c-3.6,19.1-11.6,36-25.9,49.5
		c-23,21.9-56,22.9-80.2,2.3c-15.8-13.4-24.4-31-28.5-50.9c-2.7-13-2.8-26-0.5-39.1c1.7-9.2,3.7-11.2,12.7-10.2
		c18.6,1.9,37.1,4,55.6,6c13,1.4,26.1,2.9,39.1,4c11.8,1,23.1-2.5,34.6-4.2c35.4-5.3,70.8-11.1,106.2-16.7
		c5.1-0.8,10.3-1.7,15.3-2.5c1-2.9-1.4-3.1-2.7-3.7c-32.9-17-65.9-33.8-98.8-50.8c-3.6-1.8-6.9-2.4-10.9-1.6
		c-7.1,1.4-14.4,2.4-21.6,3.1c-5.3,0.6-8.1-1.3-8.7-5.1c-0.7-4.3,1.5-6.6,7.1-8c6.5-1.6,13.3-1.3,20.4-4
		c-11.4-27.5-22.7-54.9-34-82.4c-4-0.1-7.1,1.7-10.4,2.5c-3.8,0.9-7,0-8.7-3.8c-1.6-3.6,0.2-6.9,4.6-9c0.3-0.1,0.5-0.3,0.8-0.3
		c11-1.1,14.9-9,18.7-18c10.4-24.4,21.5-48.5,32.3-72.7c1-2.3,3.1-4.4,2-7.4c-3.6,1.6-6.2,4.4-9,6.8c-29.7,25-59.3,50.1-89,75
		c-4.5,3.8-8.2,8.1-11.2,13.2c-21.2,36.6-42.5,73.1-63.6,109.7c-2.8,4.8-6.4,7.8-11.4,10.1c-28.9,13.2-57.7,26.7-86.5,40.1
		c-2.6,1.2-5.5,1.9-7.9,4.6c8.8,2.7,17.8,2.6,26.4,3.6c24.9,2.9,49.9,5.2,74.8,7.8c2.6,0.3,5.2,0.5,7.8,1c8.4,1.4,9.4,3,8.3,11.7
		c-3.8,28-7.4,56-11.1,84.1c-0.2,1.7-0.2,3.5-0.3,5.9c28.7,19.6,57.5,39.3,86.8,59.3c29.1-19.9,57.9-39.5,87.1-59.4
		c-1.6-12.7-3.2-25.1-4.8-37.5c-0.7-5.5-1.7-11-2.2-16.5c-0.6-5.3,1.8-8.5,6-8.9c4-0.3,6.7,1.9,7.4,6.9c2.5,18.5,4.8,37,7.3,55.5
		c0.7,5.3-1.2,8.7-5.6,11.6c-29.5,19.9-58.9,39.9-88.2,60.2c-5.2,3.6-9.1,3.4-14.2-0.1c-29-20.1-58.2-40-87.5-59.7
		c-5.4-3.6-6.9-7.8-6-13.9c3.4-24,6.4-47.9,9.5-71.9c0.6-4.3,1-8.7,1.5-13.5c-11.1-2.8-22.1-3-33-4.2c-32.2-3.6-64.3-6.9-96.5-10.3
		c-6.1-0.7-8.5-2.7-8.6-6.7c-0.1-4.2,2.9-6,6.2-7.5c11.4-5.2,22.8-10.5,34.1-15.8c2.9-1.3,6-2.2,8.4-4.6c2.8-5.1,8.7-5,13-7.5
		c18.5-8.6,36.6-17.8,55.4-25.6c7.9-3.3,12.1-9.6,15.5-16.9C471.3,358.1,474.2,348.5,481.5,341.9z"/>
	<path class="st1" d="M739.4,413.3c-5.1-1.5-9.7-3.8-13.9-7.1c-3.1-4.4-2.4-9.5-2.4-14.4c0-109,0-218.1,0-327.1
		c0-19.8,0-19.8-19.5-19.8c-12,0-23.9-0.2-35.9,0.1c-9.5,0.2-10.6,1.2-10.6,10.7c-0.2,28,0,56-0.1,84c0,4.9,0.5,10-3.1,14.2
		c-4.3,4.2-8.5,8.4-13.8,11.5c-0.1-6.1-0.2-12.2-0.2-18.3c0-31.2,0-62.4,0-93.6c0-3.5-0.1-7.1,0.7-10.4c2.5-11.1,10-14.7,17.8-14.5
		c20.7,0.4,41.4,0.1,62.1,0.2c10.7,0,15.7,4.4,18.2,15c0.9,4,0.8,8.1,0.8,12.2c0,112.2,0,224.4,0,336.6
		C739.5,399.3,739.4,406.3,739.4,413.3z"/>
	<path class="st1" d="M481.5,341.9c-3.4,8.7-8.6,16.3-13.7,24c-5.1-3.4-3.6-8.8-3.6-13.5c-0.2-42.6-0.1-85.1-0.1-127.7
		c0-15.3,0-15.3-15.6-15.3c-12.2,0-24.5,0-36.7,0c-12.8,0.1-13.8,1-13.8,14.1c-0.1,49.9,0,99.7,0,149.6c0,8.5,0.1,16.9,0,25.4
		c0,3.8,0.2,7.6-2.4,10.9c-4.2,3-8.8,5-13.8,6.3c0-6.4-0.1-12.8-0.1-19.2c0-58.8,0-117.7,0-176.5c0-5,0.1-9.9,1.5-14.7
		c2.3-8.4,7.7-12.5,16.5-12.6c21.3-0.1,42.5-0.1,63.8,0c9.8,0,15.7,5,17.4,14.8c0.5,3.1,0.4,6.4,0.4,9.6
		C481.3,258.7,481.4,300.3,481.5,341.9z"/>
	<path class="st1" d="M610.8,190.1c-4.4,4.1-8.5,8.7-13.9,11.5c-3.8-3-3.1-7.3-3.2-11.3c-0.2-14.6,0.1-29.1-0.1-43.7
		c-0.1-9.5-1.2-10.6-10.6-10.7c-14.9-0.2-29.7-0.2-44.6,0c-9.7,0.1-10.9,1.2-10.9,11.3c-0.2,33.8-0.1,67.6,0,101.4
		c0,6.5-0.5,12.8-2.5,18.9c-3.9,8.3-8.1,16.4-13.9,23.6c-0.1-8.4-0.2-16.9-0.2-25.3c0-40.3,0-80.5,0-120.8c0-2.9-0.2-5.9,0.2-8.7
		c1.4-12.1,7.4-17.4,19.6-17.4c19.8,0,39.7,0,59.5,0c13,0,19.3,5.7,20.1,18.7c0.5,8.1,0.1,16.3,0.2,24.5
		C610.5,171.5,610.7,180.8,610.8,190.1z"/>
	<path class="st2" d="M783.9,725c-3.9,0-7,0-10.1,0c-2,4.4,0.1,9-1.7,13.5c-4.5,1-9,0.5-13.9,0.3c-0.7-9.8-0.8-18.9,0-28.7
		c14.3,0,28.2,0,42.6,0c1.6,4.8,0.8,9.4-0.7,14.2c-7.5,24.5-14.9,49-22.4,73.5c-0.8,2.8-1.6,5.6-2.5,8.6c3.9,1.8,7.4,1.3,10.9,0.5
		c1.9-4.4-0.2-9,1.8-13.5c4.2-0.5,8.4-0.5,13.1,0.1c0,9.6,0,18.8,0,28.5c-14.2,0-28.4,0-42.5,0c-2.2-5.2-0.3-9.9,1.1-14.6
		c7.5-24.8,15.1-49.6,22.6-74.4C783.2,730.6,784.3,728.2,783.9,725z"/>
	<path class="st2" d="M593.7,710.7c5.3-1.6,9.5-1.2,14.5-0.6c2.8,22.7,5.6,45.3,8.4,67.8c0.6,0,1.2-0.1,1.8-0.1
		c2.7-22.3,5.4-44.6,8.1-66.8c6.8-1.7,6.8-1.7,14.7-0.3c-5.6,37-11.2,74-16.8,110.9c-4.4,1.6-8.4,0.9-13.7,0.7
		C605.1,785.2,599.4,748,593.7,710.7z"/>
	<path class="st3" d="M362.9,682c0,5.3,0,9.3,0,13.6c-4.4,2-9.1,0.8-13.6,1c-4.6,0.2-9.3,0-13.8,0c-1.8,6.4-2.2,36.4-0.6,47.4
		c6.4,1.4,13.1-0.1,20,1c2.3,4.4,1.1,8.9,0.9,13.9c-6.9,1.8-14,0-21.7,1.4c0,20.6,0,41.1,0,61.9c-5,0-9,0-13.1,0
		c-2.1-1.7-1.3-4.2-1.3-6.4c0-39,0.3-78.1-0.2-117.1c-0.1-10,6.6-17.4,16.5-16.8C344.5,682.4,353.3,682,362.9,682z"/>
	<path class="st1" d="M508.3,822.4c-1.7-3-1.2-5.3-1.2-7.6c0-38.4,0-76.9,0-115.3c0-4.1,0.1-8.2,2.7-11.6c2.6-3.4,5.9-5.7,10.3-5.7
		c9.9-0.1,19.7,0,29.6,0c2.1,4.7,0.5,9,1.3,13.7c-9.7,1.8-19,0-28.1,1.2c-1.7,6.5-1.9,38.3-0.3,47c6.4,1.5,13.2-0.2,20.2,1.1
		c1.5,4.4,0.8,8.9,0.5,13.8c-6.9,1.8-14-0.2-21.5,1.4c0,20.3,0,40.6,0,60.9C517.1,823.4,512.8,822.4,508.3,822.4z"/>
	<path class="st4" d="M691.5,710.3c5-1.3,9.3-0.7,14.1-0.5c0,37.9,0,75.2,0,112.6c-7.8-0.1-12.5-3.6-14-10.3c-0.4-2-0.4-4-0.4-6.1
		c0-30,0-60,0-89.9C691.2,714.4,691.4,712.7,691.5,710.3z"/>
	<path class="st5" d="M536.7,477.9c2.3,0,4.7-0.2,6.9,0c3.7,0.4,5.8,2.6,6,6.3c0.2,3.7-1.6,6.5-5.2,6.9c-5.2,0.5-10.4,0.6-15.6,0.1
		c-3.4-0.3-5.6-2.9-5.7-6.6c-0.1-3.5,2.5-6.2,6.6-6.7C532.1,477.7,534.4,477.9,536.7,477.9L536.7,477.9z"/>
	<path class="st6" d="M691.5,682.3c5.2-0.8,9.4-0.9,14,0.1c1.5,4.4,0.4,8.7,0.7,13c-4.7,2.3-9.3,1.1-14.1,1.1
		C690.3,692,691.2,687.5,691.5,682.3z"/>
	<path class="st1" d="M653.9,153.8c-1.1-21.9-0.3-43.8-0.5-65.6c-0.1-12.5-0.2-25.1,0.1-37.6c0.2-7.7,1.1-8.4,8.8-8.4
		c18.7-0.1,37.3,0,56,0c1.7,0,3.4,0.2,4.8,0.3c3.5,3.7,2.7,8,2.7,12c0.1,39.1,0,78.2,0,117.3c0,71.5,0,143,0,214.5
		c0,6.7-0.2,13.4-0.3,20.1c-8.3-2.8-15.7-7.5-23.5-11.4c-12.2-6.1-24.2-12.9-36.6-18.6c-6.7-3.1-10.9-7.3-12.4-14.4
		c-2.6-53.2-2.6-106.4-0.1-159.7c6.1-13.8,12.1-27.6,18.2-41.4c1-2.4,2.1-4.8,2.8-7.3c0.7-2.7,0.1-5.3-2.2-7
		c-2.6-1.9-5.5-1.9-8.1-0.1C660.2,148.7,657.1,151.3,653.9,153.8z"/>
	<path class="st1" d="M395.5,409.4c-0.1-64.5-0.2-129-0.2-193.4c0-2.9-0.1-5.9,2.3-9c22.3,0,45.2,0,68,0c2.8,3.8,2,8,2,12
		c0,44.9-0.1,89.9-0.1,134.8c0,4.1,0.2,8.2,0.3,12.2c-3.5,9.4-9.5,15.8-19.2,19.7c-15.3,6.1-30,13.7-45,20.6
		C400.9,407.4,398.2,408.3,395.5,409.4z"/>
	<path class="st1" d="M524.9,267.6c-0.1-25.6-0.3-51.3-0.4-76.9c-0.1-16-0.1-32.1,0-48.1c0-9.8,0.3-10,9.7-10c17.5,0,35,0,52.5,0
		c9.8,0,10,0.2,10.1,10.5c0,16.3-0.1,32.6-0.1,49c0,3.2,0.2,6.4,0.3,9.6c-4.7,5.6-10.7,9.7-16.2,14.4
		c-12.3,10.6-24.7,21.1-37.2,31.3C536.3,253.2,529.6,259.4,524.9,267.6z"/>
	<path class="st7" d="M652.9,202.1c1.2,3.1,0.6,6.3,0.6,9.5c0,46.9,0,93.8,0,140.6c0,3.2,0.5,6.4-0.6,9.5
		c-4.9-10.8-10-21.6-13.4-33.1c-3.4-32-3.6-63.9,0.1-95.9C642.9,222.1,647.9,212.1,652.9,202.1z"/>
	<path class="st8" d="M639.6,232.8c0.5,32,0.6,63.9-0.1,95.9c-7.6-15.1-13.1-31.1-19.9-46.5c-1-2.3-1-4.5,0.1-6.7
		C626.5,261.4,631.7,246.5,639.6,232.8z"/>
	<g>
		<path class="st9" d="M453.3,752.9c0-15.2,0-30.3,0-45.5c0-2.3,0-4.7-0.2-7c-0.9-9.2-7.8-17.2-16.6-19.2c-9.3-2.1-19,2.1-23.9,10.5
			c-2.2,3.8-3.2,8-3.2,12.5c0,32,0,64.1,0,96.1c0,3.3,0.5,6.5,1.8,9.4c3.5,7.7,9.1,12.8,17.8,13.6c13.4,1.2,23.9-7.8,24.2-21.5
			C453.6,785.5,453.3,769.2,453.3,752.9z M437.8,807c-3.8,1.2-7.9,0.3-11.8,0.6c-1.9-6.5-2.5-91.5-0.9-110.2
			c4.1-1.3,8.3-0.7,12.4-0.4C439,703.9,439.2,797.7,437.8,807z"/>
	</g>
</g>
</svg>
